# xmcd CD database file
#
# Track frame offsets:
#	150
#	12312
#	22662
#	33900
#	44875
#	57475
#	71287
#	84887
#	98787
#	111825
#	125350
#	138425
#	152810
#	164825
#	176645
#	191125
#	205850
#	218750
#	232692
#	247525
#	259722
#	272127
#	283910
#	296212
#	310725
#	325125
#
# Disc length: 4487 seconds
#
# Revision: 0
# Processed by: cddbd v1.4PL0 Copyright (c) Steve Scherf et al.
# Submitted via: CDex 1.50beta8
#
DISCID=7411851a
DTITLE=Thore Erling - Jazz Highlights 1939-55
DYEAR=1993
DGENRE=Jazz
TTITLE0=Lady be good
TTITLE1=The flat foot floggie
TTITLE2=Runt om ett enrissnår
TTITLE3=Royal strut
TTITLE4=Roses of Picardy
TTITLE5=Meditation
TTITLE6=Music after dinner
TTITLE7=Jag står i regnet
TTITLE8=My buddy
TTITLE9=Budin'
TTITLE10=Just a dixie
TTITLE11=St Loius blues
TTITLE12=Limehouse blues
TTITLE13=Sonny Boy
TTITLE14=Missisippi mood
TTITLE15=Clarinet blues
TTITLE16=Carribean clipper
TTITLE17=Pan pipe riff
TTITLE18=Guitar blues
TTITLE19=Ridin' high
TTITLE20=Coquette
TTITLE21=Sinbad the sailor
TTITLE22=Cadillac slim
TTITLE23=Reactions
TTITLE24=Don't be that way
TTITLE25=Crazy rhytm
EXTD=YEAR: 1993
EXTT0=
EXTT1=
EXTT2=
EXTT3=
EXTT4=
EXTT5=
EXTT6=
EXTT7=
EXTT8=
EXTT9=
EXTT10=
EXTT11=
EXTT12=
EXTT13=
EXTT14=
EXTT15=
EXTT16=
EXTT17=
EXTT18=
EXTT19=
EXTT20=
EXTT21=
EXTT22=
EXTT23=
EXTT24=
EXTT25=
PLAYORDER=
